<svg width="312" height="88" viewBox="0 0 312 88" fill="none" xmlns="http://www.w3.org/2000/svg">
<g clip-path="url(#clip0_1381_74088)">
<path d="M111.125 46.0716C106.512 46.0716 103.44 45.0669 101.919 43.0573C100.397 41.0477 100.536 38.0094 102.335 33.9329C103.483 31.33 105.015 29.1147 106.924 27.2917C108.833 25.464 111.067 24.0812 113.627 23.1243C116.192 22.1721 119.015 21.6937 122.096 21.6937C124.163 21.6937 126.015 21.8946 127.656 22.3013L125.641 26.8611C124.058 26.4736 122.345 26.2822 120.503 26.2822C117.493 26.2822 114.995 26.9042 113.01 28.1434C111.024 29.3874 109.459 31.2917 108.321 33.8611C107.168 36.4736 107.024 38.397 107.89 39.6267C108.756 40.8563 110.622 41.4736 113.503 41.4736C115.44 41.4736 117.445 41.2295 119.512 40.7367L117.493 45.3157C115.378 45.8181 113.254 46.0716 111.12 46.0716H111.125ZM131.483 46.0716C128.871 46.0716 126.814 45.5932 125.302 44.6458C123.794 43.6984 122.924 42.3109 122.689 40.4879C122.46 38.6602 122.909 36.464 124.048 33.8803C125.187 31.3013 126.68 29.0956 128.526 27.2678C130.369 25.4401 132.464 24.0573 134.809 23.1099C137.153 22.1626 139.632 21.6937 142.244 21.6937C144.857 21.6937 146.933 22.1721 148.44 23.1243C149.948 24.0764 150.818 25.464 151.048 27.2917C151.282 29.1195 150.828 31.3157 149.694 33.885C148.56 36.4544 147.072 38.6506 145.22 40.4736C143.369 42.3013 141.268 43.6889 138.919 44.641C136.57 45.5932 134.091 46.0716 131.479 46.0716H131.483ZM133.455 41.6075C135.694 41.6075 137.704 40.9712 139.483 39.6984C141.268 38.4257 142.713 36.5214 143.833 33.9999C144.991 31.3779 145.249 29.4114 144.593 28.1099C143.943 26.8085 142.498 26.1626 140.273 26.1626C138.048 26.1626 136.053 26.7941 134.263 28.0621C132.474 29.33 131.015 31.2343 129.895 33.775C128.723 36.4305 128.459 38.4018 129.101 39.6841C129.742 40.9712 131.196 41.6123 133.455 41.6123V41.6075ZM175.526 21.9999H180.89L170.397 45.7654H164.68L159.814 29.7559L152.747 45.7654H147.383L157.876 21.9999H163.593L168.459 38.0094L175.526 21.9999ZM180.498 45.7654L189.019 26.464H177.23L179.201 21.9999H205.105L203.134 26.464H194.704L186.182 45.7654H180.498ZM214.507 45.7654L215.024 39.4688H204.775L199.732 45.7654H194.192L213.55 21.9999H221.723L220.11 45.7654H214.507ZM208.182 35.2152H215.378L216.196 25.2104L208.182 35.2152ZM251.837 33.8803C250.464 36.9855 248.593 39.5453 246.211 41.5549C243.828 43.5692 241.043 44.8468 237.857 45.3922C240.105 45.9712 242.78 46.4401 245.871 46.8037L243.172 51.0573C237.263 50.2343 232.857 49.0381 229.943 47.4831C227.034 45.9233 225.335 44.0525 224.842 41.8611C224.354 39.6697 224.766 37.086 226.086 34.1003C227.254 31.4592 228.766 29.2008 230.627 27.3396C232.488 25.4783 234.593 24.0669 236.933 23.1147C239.278 22.1626 241.756 21.6841 244.378 21.6841C247 21.6841 249.067 22.153 250.579 23.1003C252.086 24.0477 252.957 25.4353 253.192 27.2582C253.426 29.086 252.971 31.287 251.833 33.8707L251.837 33.8803ZM232.038 33.7654C229.732 38.9903 230.919 41.6027 235.598 41.6027C237.837 41.6027 239.847 40.9664 241.627 39.6937C243.412 38.4209 244.857 36.5166 245.976 33.9951C247.134 31.3731 247.393 29.4066 246.742 28.1051C246.091 26.8037 244.646 26.1578 242.421 26.1578C240.196 26.1578 238.201 26.7893 236.412 28.0573C234.622 29.3252 233.163 31.2295 232.043 33.7702L232.038 33.7654ZM260.536 46.0669C256.641 46.0669 254.192 45.1578 253.192 43.3348C252.192 41.5166 252.479 38.8133 254.062 35.2248L259.904 21.9903H265.589L259.536 35.7032C258.651 37.7032 258.464 39.1721 258.967 40.1099C259.469 41.0477 260.66 41.5166 262.541 41.5166C264.421 41.5166 266.029 41.0429 267.354 40.1099C268.68 39.1721 269.78 37.7032 270.665 35.7032L276.718 21.9903H282.306L276.464 35.2248C274.881 38.8133 272.79 41.5166 270.187 43.3348C267.584 45.153 264.369 46.0669 260.536 46.0669ZM283.038 41.507H296.464L294.584 45.7606H275.536L286.029 21.9951H304.914L303.034 26.2487H289.766L287.455 31.4831H299.034L297.153 35.7367H285.574L283.029 41.5023L283.038 41.507Z" fill="#231F20"/>
<path fill-rule="evenodd" clip-rule="evenodd" d="M306.761 24.9854V22.3012H305.756V21.9424H308.167V22.3012H307.158V24.9854H306.756H306.761ZM308.569 24.9854V21.9424H309.177L309.899 24.1003C309.966 24.3012 310.014 24.4496 310.043 24.55C310.076 24.44 310.134 24.2773 310.206 24.062L310.933 21.9424H311.474V24.9854H311.086V22.4352L310.201 24.9854H309.837L308.957 22.3921V24.9854H308.569Z" fill="black"/>
<path fill-rule="evenodd" clip-rule="evenodd" d="M217.397 63.5739C217.177 63.5739 217.005 63.5118 216.881 63.3826C216.756 63.2534 216.694 63.0763 216.694 62.8467V53.9567H222.89V54.617H217.45V58.3299H222.479V58.9902H217.45V62.9089H222.89V63.5835H217.393L217.397 63.5739ZM233.039 56.6074C233.608 56.6074 234.058 56.794 234.398 57.172C234.737 57.5452 234.905 58.0572 234.905 58.6984V63.5787H234.163V58.6888C234.163 58.2582 234.058 57.9137 233.852 57.6601C233.646 57.4017 233.369 57.2773 233.02 57.2773H232.211C231.809 57.2773 231.464 57.4256 231.187 57.7175C230.909 58.0094 230.632 58.4017 230.632 58.9137V63.5835H229.89V58.8036C229.89 58.3347 229.79 57.9663 229.594 57.6888C229.398 57.4161 229.134 57.2773 228.804 57.2773H228.005C227.622 57.2773 227.278 57.4448 226.976 57.7845C226.675 58.1242 226.359 58.5548 226.359 59.1051V63.5835H225.618V56.7271H226.331V57.8371C226.531 57.4543 226.78 57.1529 227.072 56.9376C227.364 56.7223 227.675 56.617 228.005 56.617H228.814C229.192 56.617 229.522 56.7223 229.804 56.9328C230.087 57.1433 230.292 57.4352 230.421 57.8132C230.622 57.4304 230.876 57.1338 231.182 56.928C231.488 56.7223 231.823 56.617 232.192 56.617H233.029L233.039 56.6074ZM237.905 56.7175H238.618V57.7893C238.819 57.4304 239.087 57.1433 239.421 56.928C239.756 56.7127 240.096 56.6074 240.445 56.6074H241.45C242.144 56.6074 242.708 56.8323 243.134 57.2869C243.56 57.7414 243.775 58.3395 243.775 59.0811V60.9519C243.775 61.7749 243.56 62.44 243.13 62.9376C242.699 63.4352 242.12 63.684 241.397 63.684H240.393C240.063 63.684 239.742 63.5883 239.421 63.3969C239.106 63.2055 238.847 62.9472 238.646 62.6266V66.3108H237.905V56.7175ZM241.383 63.0237C241.886 63.0237 242.292 62.8323 242.594 62.4543C242.895 62.0763 243.048 61.574 243.048 60.9472V59.0763C243.048 58.5357 242.905 58.1003 242.608 57.7653C242.316 57.4304 241.924 57.2629 241.441 57.2629H240.45C240.048 57.2629 239.68 57.4256 239.345 57.751C239.01 58.0763 238.78 58.4687 238.651 58.9232V61.2869C238.651 61.751 238.938 62.1481 239.268 62.4974C239.598 62.8467 239.981 63.0189 240.421 63.0189H241.383V63.0237ZM248.747 63.684C248.015 63.684 247.421 63.4543 246.972 62.9902C246.522 62.5261 246.297 61.9184 246.297 61.1673V59.1194C246.297 58.3682 246.522 57.7606 246.976 57.2964C247.431 56.8323 248.029 56.6027 248.771 56.6027H249.857C250.598 56.6027 251.197 56.8323 251.651 57.2964C252.106 57.7606 252.331 58.3682 252.331 59.1194V61.1673C252.331 61.9184 252.101 62.5261 251.642 62.9902C251.187 63.4495 250.579 63.684 249.828 63.684H248.742H248.747ZM249.833 63.0237C250.364 63.0237 250.79 62.8563 251.12 62.5165C251.445 62.1768 251.608 61.7271 251.608 61.172V59.1242C251.608 58.5644 251.445 58.1146 251.125 57.7797C250.804 57.44 250.383 57.2725 249.862 57.2725H248.776C248.254 57.2725 247.833 57.44 247.517 57.7797C247.201 58.1194 247.043 58.5692 247.043 59.1242V61.172C247.043 61.7318 247.197 62.1816 247.512 62.5165C247.823 62.8563 248.235 63.0237 248.752 63.0237H249.838H249.833ZM263.311 56.7175L261.799 62.8993C261.742 63.1385 261.646 63.3108 261.536 63.4161C261.426 63.5213 261.278 63.5739 261.096 63.5739H260.752L258.953 58.0476L257.096 63.5739H256.752C256.57 63.5739 256.421 63.5213 256.311 63.4161C256.201 63.3108 256.11 63.1385 256.048 62.8993L254.522 56.7175H255.307L256.709 62.751L258.646 56.9089H258.933C259.125 56.9089 259.264 57.0333 259.345 57.2773L261.13 62.7606L262.517 56.7127H263.302L263.311 56.7175ZM267.929 63.684C267.206 63.684 266.622 63.4639 266.177 63.0237C265.732 62.5835 265.512 61.9998 265.512 61.2773V59.1481C265.512 58.3874 265.737 57.7749 266.177 57.306C266.622 56.8371 267.206 56.6074 267.929 56.6074H269.058C269.756 56.6074 270.316 56.8323 270.742 57.2869C271.168 57.7414 271.383 58.3443 271.383 59.0955V60.2486H266.259V61.2773C266.259 61.7988 266.412 62.2199 266.718 62.5405C267.024 62.861 267.431 63.0237 267.933 63.0237H268.976C269.469 63.0237 269.871 62.8802 270.177 62.5931C270.484 62.306 270.637 61.928 270.637 61.4591H271.354C271.354 62.129 271.134 62.6649 270.699 63.0716C270.264 63.4783 269.689 63.684 268.976 63.684H267.933H267.929ZM270.651 59.617V59.0955C270.651 58.5452 270.503 58.1051 270.211 57.7701C269.919 57.4352 269.531 57.2677 269.058 57.2677H267.929C267.426 57.2677 267.02 57.44 266.713 57.7893C266.407 58.1385 266.254 58.5931 266.254 59.1481V59.617H270.651ZM274.101 56.7175H274.814V57.8275C275.015 57.4783 275.307 57.2007 275.68 56.995C276.053 56.7893 276.46 56.684 276.89 56.684H277.398V57.3443H276.876C276.283 57.3443 275.795 57.5357 275.412 57.9232C275.029 58.306 274.842 58.8084 274.842 59.4208V63.5692H274.101V56.7127V56.7175ZM281.852 63.684C281.13 63.684 280.546 63.4639 280.101 63.0237C279.656 62.5835 279.436 61.9998 279.436 61.2773V59.1481C279.436 58.3874 279.661 57.7749 280.101 57.306C280.546 56.8371 281.13 56.6074 281.852 56.6074H282.981C283.675 56.6074 284.24 56.8323 284.665 57.2869C285.091 57.7414 285.307 58.3443 285.307 59.0955V60.2486H280.182V61.2773C280.182 61.7988 280.335 62.2199 280.642 62.5405C280.948 62.861 281.354 63.0237 281.857 63.0237H282.9C283.393 63.0237 283.795 62.8802 284.101 62.5931C284.407 62.306 284.56 61.928 284.56 61.4591H285.273C285.273 62.129 285.053 62.6649 284.622 63.0716C284.187 63.4783 283.613 63.684 282.9 63.684H281.857H281.852ZM284.575 59.617V59.0955C284.575 58.5452 284.426 58.1051 284.134 57.7701C283.842 57.4352 283.455 57.2677 282.981 57.2677H281.852C281.35 57.2677 280.943 57.44 280.637 57.7893C280.331 58.1385 280.177 58.5931 280.177 59.1481V59.617H284.575ZM290.029 63.684C289.35 63.684 288.799 63.4495 288.378 62.9759C287.957 62.5022 287.747 61.885 287.747 61.1146V59.2725C287.747 58.4735 287.972 57.8323 288.417 57.3443C288.862 56.8562 289.445 56.6074 290.168 56.6074H291.211C291.531 56.6074 291.847 56.6936 292.153 56.861C292.46 57.0285 292.704 57.2582 292.89 57.5405V53.9519H293.618V63.5739H292.9V62.4208C292.67 62.8132 292.388 63.1242 292.058 63.3491C291.723 63.5739 291.374 63.684 291.005 63.684H290.029ZM290.991 63.0237C291.421 63.0237 291.819 62.8323 292.187 62.4543C292.555 62.0763 292.89 61.6218 292.89 61.0716V58.8467C292.89 58.373 292.598 57.9998 292.287 57.7079C291.976 57.4161 291.613 57.2677 291.201 57.2677H290.182C289.67 57.2677 289.259 57.4495 288.953 57.818C288.646 58.1864 288.493 58.6696 288.493 59.2725V61.1146C288.493 61.684 288.637 62.1433 288.924 62.4974C289.211 62.8515 289.584 63.0285 290.043 63.0285H290.991V63.0237ZM104.857 63.684C104.273 63.684 103.752 63.5405 103.297 63.2582C102.842 62.9759 102.493 62.574 102.244 62.0572C101.996 61.5405 101.876 60.9424 101.876 60.2629V57.2534C101.876 56.574 102 55.9807 102.254 55.4687C102.508 54.9567 102.862 54.5596 103.326 54.2725C103.79 53.9902 104.316 53.8467 104.914 53.8467H106.374C106.943 53.8467 107.445 53.9711 107.886 54.2151C108.326 54.4639 108.665 54.8084 108.905 55.2534C109.144 55.6984 109.264 56.2103 109.264 56.7845H108.536C108.536 56.1051 108.34 55.5596 107.943 55.1433C107.551 54.7271 107.029 54.5165 106.378 54.5165H104.919C104.244 54.5165 103.689 54.7701 103.268 55.2725C102.847 55.7749 102.637 56.4352 102.637 57.2534V60.2629C102.637 61.0859 102.842 61.751 103.249 62.2486C103.656 62.7462 104.197 62.995 104.866 62.995H106.35C107.02 62.995 107.555 62.7701 107.957 62.3156C108.359 61.861 108.56 61.2582 108.56 60.507H109.287C109.287 61.1385 109.168 61.6936 108.924 62.1768C108.68 62.6601 108.335 63.0285 107.895 63.2917C107.45 63.55 106.933 63.684 106.35 63.684H104.866H104.857ZM114.063 63.684C113.331 63.684 112.737 63.4543 112.287 62.9902C111.838 62.5261 111.613 61.9184 111.613 61.1673V59.1194C111.613 58.3682 111.838 57.7606 112.292 57.2964C112.747 56.8323 113.345 56.6027 114.087 56.6027H115.173C115.914 56.6027 116.512 56.8323 116.967 57.2964C117.421 57.7606 117.646 58.3682 117.646 59.1194V61.1673C117.646 61.9184 117.417 62.5261 116.957 62.9902C116.498 63.4495 115.895 63.684 115.144 63.684H114.058H114.063ZM115.149 63.0237C115.68 63.0237 116.11 62.8563 116.431 62.5165C116.756 62.1768 116.919 61.7271 116.919 61.172V59.1242C116.919 58.5644 116.756 58.1146 116.441 57.7797C116.12 57.44 115.699 57.2725 115.177 57.2725H114.091C113.57 57.2725 113.149 57.44 112.833 57.7797C112.517 58.1194 112.359 58.5692 112.359 59.1242V61.172C112.359 61.7318 112.512 62.1816 112.823 62.5165C113.134 62.8563 113.546 63.0237 114.063 63.0237H115.149ZM127.876 56.6074C128.445 56.6074 128.895 56.794 129.235 57.172C129.575 57.5452 129.742 58.0572 129.742 58.6984V63.5787H129V58.6888C129 58.2582 128.895 57.9137 128.689 57.6601C128.484 57.4017 128.206 57.2773 127.857 57.2773H127.043C126.642 57.2773 126.302 57.4256 126.02 57.7175C125.742 58.0094 125.555 58.4113 125.464 58.9137V63.5835H124.723V58.8036C124.723 58.3347 124.622 57.9663 124.426 57.6888C124.23 57.4113 123.967 57.2773 123.637 57.2773H122.838C122.455 57.2773 122.11 57.4448 121.809 57.7845C121.508 58.1242 121.302 58.5644 121.187 59.1051V63.5835H120.445V56.7271H121.158V57.8371C121.359 57.4543 121.608 57.1529 121.9 56.9376C122.192 56.7223 122.503 56.617 122.833 56.617H123.642C124.02 56.617 124.35 56.7223 124.632 56.9328C124.914 57.1433 125.125 57.4352 125.249 57.8132C125.45 57.4304 125.704 57.1338 126.015 56.928C126.321 56.7223 126.656 56.617 127.024 56.617H127.862L127.876 56.6074ZM140.163 56.6074C140.732 56.6074 141.182 56.794 141.522 57.172C141.862 57.5452 142.029 58.0572 142.029 58.6984V63.5787H141.287V58.6888C141.287 58.2582 141.182 57.9137 140.976 57.6601C140.771 57.4017 140.493 57.2773 140.144 57.2773H139.335C138.933 57.2773 138.589 57.4256 138.311 57.7175C138.034 58.0094 137.847 58.4113 137.756 58.9137V63.5835H137.015V58.8036C137.015 58.3347 136.914 57.9663 136.718 57.6888C136.522 57.4113 136.259 57.2773 135.929 57.2773H135.13C134.742 57.2773 134.402 57.4448 134.101 57.7845C133.799 58.1242 133.594 58.5644 133.484 59.1051V63.5835H132.742V56.7271H133.455V57.8371C133.656 57.4543 133.905 57.1529 134.197 56.9376C134.488 56.7223 134.799 56.617 135.13 56.617H135.938C136.316 56.617 136.646 56.7223 136.929 56.9328C137.211 57.1433 137.417 57.4352 137.546 57.8132C137.747 57.4304 138 57.1338 138.311 56.928C138.618 56.7223 138.957 56.617 139.321 56.617H140.158L140.163 56.6074ZM146.962 63.684C146.369 63.684 145.881 63.483 145.508 63.0716C145.13 62.6649 144.943 62.1242 144.943 61.4591V56.7175H145.685V61.4735C145.685 61.9328 145.799 62.306 146.034 62.5931C146.268 62.8802 146.575 63.0237 146.962 63.0237H147.814C148.082 63.0237 148.35 62.9376 148.627 62.7606C148.905 62.5883 149.144 62.3491 149.354 62.0524C149.565 61.7558 149.709 61.44 149.78 61.1098V56.7127H150.508V63.5692H149.795V62.3299C149.565 62.7271 149.268 63.0476 148.9 63.3012C148.531 63.5548 148.182 63.6792 147.842 63.6792H146.962V63.684ZM153.584 56.7175H154.297V57.885C154.527 57.4926 154.814 57.1816 155.168 56.9519C155.522 56.7223 155.881 56.6074 156.249 56.6074H157.173C157.766 56.6074 158.249 56.818 158.622 57.2342C158.996 57.6505 159.182 58.2007 159.182 58.8897V63.5739H158.455V58.8754C158.455 58.4017 158.335 58.0141 158.096 57.7127C157.857 57.4161 157.546 57.2677 157.163 57.2677H156.268C155.857 57.2677 155.469 57.4352 155.101 57.7749C154.732 58.1146 154.479 58.5548 154.331 59.0955V63.5739H153.589V56.7175H153.584ZM162.79 55.55C162.608 55.55 162.46 55.4926 162.345 55.3874C162.23 55.2773 162.173 55.129 162.173 54.9472C162.173 54.7653 162.23 54.617 162.345 54.5022C162.46 54.3874 162.608 54.3299 162.79 54.3299C162.972 54.3299 163.12 54.3874 163.23 54.5022C163.34 54.617 163.398 54.7653 163.398 54.9472C163.398 55.1194 163.345 55.2677 163.23 55.3778C163.12 55.4926 162.976 55.55 162.79 55.55ZM162.421 56.7175H163.149V63.5739H162.421V56.7175ZM168.579 63.684C167.866 63.684 167.292 63.4639 166.857 63.0189C166.421 62.574 166.201 61.9902 166.201 61.2677V59.1529C166.201 58.3921 166.421 57.7797 166.857 57.3108C167.292 56.8419 167.862 56.6122 168.565 56.6122H169.694C170.364 56.6122 170.9 56.794 171.311 57.1625C171.718 57.5309 171.924 58.0094 171.924 58.6074H171.211C171.211 58.2055 171.072 57.8802 170.79 57.6362C170.512 57.3921 170.149 57.2725 169.699 57.2725H168.57C168.082 57.2725 167.694 57.4448 167.393 57.7893C167.096 58.1338 166.948 58.5883 166.948 59.1577V61.2725C166.948 61.8036 167.096 62.2295 167.393 62.55C167.689 62.8706 168.086 63.0333 168.579 63.0333H169.709C170.168 63.0333 170.536 62.8706 170.823 62.55C171.106 62.2295 171.249 61.8084 171.249 61.2869H171.962C171.962 62.0094 171.756 62.5931 171.345 63.0333C170.933 63.4735 170.388 63.6936 169.709 63.6936H168.579V63.684ZM176.455 63.684C175.814 63.684 175.302 63.5165 174.914 63.1816C174.531 62.8467 174.34 62.4017 174.34 61.8419V61.3204C174.34 60.7606 174.536 60.3156 174.929 59.9854C175.321 59.6553 175.847 59.4878 176.498 59.4878H177.393C177.704 59.4878 178.029 59.5405 178.364 59.6409C178.699 59.7414 178.986 59.8802 179.22 60.0524V58.7175C179.22 58.2869 179.087 57.9328 178.823 57.6601C178.555 57.3826 178.211 57.2486 177.79 57.2486H176.718C176.287 57.2486 175.938 57.3491 175.675 57.55C175.412 57.751 175.278 58.0237 175.278 58.3634H174.536C174.536 57.8323 174.737 57.4065 175.139 57.0859C175.541 56.7653 176.072 56.6074 176.718 56.6074H177.79C178.441 56.6074 178.962 56.7988 179.35 57.1864C179.737 57.574 179.933 58.0859 179.933 58.7271V63.5787H179.23V62.507C178.991 62.8754 178.699 63.1625 178.35 63.373C178 63.5835 177.651 63.6888 177.292 63.6888H176.455V63.684ZM177.307 63.0237C177.689 63.0237 178.063 62.885 178.412 62.6122C178.766 62.3347 179.034 61.9759 179.216 61.5261V60.7845C179.015 60.5931 178.747 60.4352 178.412 60.3156C178.077 60.196 177.737 60.1385 177.388 60.1385H176.493C176.063 60.1385 175.718 60.2438 175.464 60.4591C175.206 60.6744 175.082 60.9615 175.082 61.3156V61.8371C175.082 62.196 175.206 62.4783 175.45 62.6936C175.699 62.9089 176.034 63.0141 176.455 63.0141H177.307V63.0237ZM185.541 63.5739C184.847 63.5739 184.345 63.4256 184.043 63.129C183.742 62.8323 183.589 62.3395 183.589 61.6505V57.3778H182.378V56.7175H183.589V54.6409H184.316V56.7175H186.106V57.3778H184.316V61.6505C184.316 62.1003 184.407 62.4208 184.594 62.6218C184.775 62.818 185.082 62.9185 185.512 62.9185H186.106V63.5787H185.541V63.5739ZM189.527 55.55C189.345 55.55 189.197 55.4926 189.082 55.3874C188.967 55.2773 188.909 55.129 188.909 54.9472C188.909 54.7653 188.967 54.617 189.082 54.5022C189.197 54.3874 189.345 54.3299 189.527 54.3299C189.709 54.3299 189.857 54.3874 189.967 54.5022C190.077 54.617 190.13 54.7653 190.13 54.9472C190.13 55.1194 190.077 55.2677 189.967 55.3778C189.857 55.4926 189.713 55.55 189.527 55.55ZM189.153 56.7175H189.881V63.5739H189.153V56.7175ZM195.378 63.684C194.646 63.684 194.053 63.4543 193.603 62.9902C193.153 62.5261 192.929 61.9184 192.929 61.1673V59.1194C192.929 58.3682 193.158 57.7606 193.608 57.2964C194.063 56.8323 194.661 56.6027 195.402 56.6027H196.488C197.23 56.6027 197.828 56.8323 198.283 57.2964C198.737 57.7606 198.962 58.3682 198.962 59.1194V61.1673C198.962 61.9184 198.732 62.5261 198.273 62.9902C197.814 63.4495 197.211 63.684 196.46 63.684H195.374H195.378ZM196.464 63.0237C196.996 63.0237 197.426 62.8563 197.752 62.5165C198.077 62.1768 198.24 61.7271 198.24 61.172V59.1242C198.24 58.5644 198.082 58.1146 197.761 57.7797C197.441 57.4448 197.02 57.2725 196.498 57.2725H195.412C194.89 57.2725 194.469 57.44 194.153 57.7797C193.838 58.1194 193.68 58.5692 193.68 59.1242V61.172C193.68 61.7318 193.833 62.1816 194.149 62.5165C194.46 62.8563 194.871 63.0237 195.388 63.0237H196.474H196.464ZM201.771 56.7175H202.484V57.885C202.713 57.4926 203.005 57.1816 203.354 56.9519C203.709 56.7223 204.067 56.6074 204.431 56.6074H205.354C205.948 56.6074 206.431 56.818 206.804 57.2342C207.177 57.6505 207.359 58.2007 207.359 58.8897V63.5739H206.632V58.8754C206.632 58.4017 206.512 58.0141 206.273 57.7127C206.034 57.4161 205.723 57.2677 205.34 57.2677H204.445C204.034 57.2677 203.642 57.4352 203.278 57.7749C202.909 58.1146 202.656 58.5548 202.508 59.0955V63.5739H201.766V56.7175H201.771Z" fill="black"/>
<path fill-rule="evenodd" clip-rule="evenodd" d="M36.7566 48.3297L48.704 57.6598C49.5604 58.3297 50.1441 59.3153 49.8284 60.4254C49.2638 62.3967 46.5365 62.9756 44.9719 61.7507L28.2207 48.6646L30.6274 46.4637L45.4839 32.8751C46.6083 31.8464 48.3547 31.9278 49.3834 33.0474C50.4121 34.1718 50.3307 35.9182 49.2111 36.9469L36.7614 48.3345L36.7566 48.3297Z" fill="#A6CE39"/>
<path fill-rule="evenodd" clip-rule="evenodd" d="M75.0525 26.8036C78.8515 23.0045 83.0429 18.4974 85.8324 13.9184C86.7941 12.3443 89.2774 8.03326 87.4783 6.31555C84.8037 3.75574 78.1003 6.38254 75.33 7.5835C71.8946 9.07632 68.5549 10.9471 65.3683 12.9089C61.6649 15.1864 58.0716 17.6648 54.574 20.2438L49.3252 17.2821L49.6601 17.0333C53.7845 13.9423 58.0525 10.9998 62.4735 8.34905C66.2104 6.10981 70.1482 4.00455 74.2008 2.40168C79.0525 0.483016 86.9329 -1.83756 91.2917 2.33469C95.5979 6.45431 93.1769 12.4926 90.5501 16.8036C87.5166 21.7749 83.086 26.6026 78.9663 30.7222C77.885 31.8036 76.1338 31.8036 75.0525 30.7222C73.9711 29.6409 73.9711 27.8897 75.0525 26.8084V26.8036Z" fill="#00AEEF"/>
<path fill-rule="evenodd" clip-rule="evenodd" d="M37.9333 64.4735C38.7515 63.6936 39.8663 63.4017 40.9524 63.7414C41.8854 64.0333 42.6893 64.7749 42.9141 65.7462C43.1199 66.6457 42.785 67.4974 42.1342 68.129C35.8519 74.196 28.8328 79.6649 21.2204 83.9663C16.2252 86.7893 7.83759 90.5309 2.90936 85.6027C-5.12413 77.5692 5.5218 61.8658 10.584 55.1098C15.4596 48.6075 21.0577 42.483 26.8376 36.7749C31.3783 32.2869 36.1199 27.9854 41.0194 23.8945L46.0816 26.8706L45.5505 27.3108C40.4165 31.55 35.45 36.0285 30.718 40.7127C25.139 46.2295 19.7132 52.1481 15.0051 58.4256C11.8759 62.5979 2.75147 75.3539 6.20123 80.9089C6.37826 81.1912 6.58879 81.4543 6.82324 81.6888C9.30649 84.172 16.2347 80.4448 18.5122 79.1577C25.5457 75.1864 32.096 70.0237 37.9381 64.4735H37.9333Z" fill="#00AEEF"/>
<path fill-rule="evenodd" clip-rule="evenodd" d="M77.6799 42.5929L32.9478 16.3776C31.6368 15.6073 31.1918 13.9135 31.9622 12.5977C32.7325 11.2867 34.4263 10.8417 35.7421 11.6121L87.2014 41.77L84.2253 44.2915L41.5459 80.4685C40.388 81.4494 38.632 81.3058 37.6511 80.1432C36.6703 78.9853 36.8186 77.2293 37.9765 76.2484L77.6846 42.5929H77.6799Z" fill="#F58220"/>
</g>
<defs>
<clipPath id="clip0_1381_74088">
<rect width="311.478" height="88" fill="white"/>
</clipPath>
</defs>
</svg>
